# AST/ASF file generated using VICON BodyLanguage
# -----------------------------------------------
:version 1.10
:name VICON
:units
  mass 1.0
  length 0.45
  angle deg
:documentation
   .ast/.asf automatically generated from VICON data using
   VICON BodyBuilder and BodyLanguage model FoxedUp or BRILLIANT.MOD
:root
   order TX TY TZ RX RY RZ
   axis XYZ
   position 0 0 0  
   orientation 0 0 0 
:bonedata
  begin
     id 1 
     name lhipjoint
     direction 0.707368 -0.647095 0.284426 
     length 2.60678 
     axis 0 0 0  XYZ
  end
  begin
     id 2 
     name lfemur
     direction 0.34202 -0.939693 0  
     length 6.63812  
     axis 0 0 20  XYZ
    dof rx ry rz
    limits (-160.0 20.0)
           (-70.0 70.0)
           (-60.0 70.0)
  end
  begin
     id 3 
     name ltibia
     direction 0.34202 -0.939693 0   
     length 7.51178   
     axis 0 0 20   XYZ
    dof rx
    limits (-10.0 170.0)
  end
  begin
     id 4 
     name lfoot
     direction 0.121251 -0.333133 0.935051   
     length 1.83716   
     axis -90 7.62852e-016 20   XYZ
    dof rx rz
    limits (-45.0 90.0)
           (-70.0 20.0)
  end
  begin
     id 5 
     name ltoes
     direction 1.53611e-011 -4.21962e-011 1   
     length 0.916133   
     axis -90 7.62852e-016 20   XYZ
    dof rx
    limits (-90.0 20.0)
  end
  begin
     id 6 
     name rhipjoint
     direction -0.692419 -0.660507 0.290321   
     length 2.55385  
     axis 0 0 0  XYZ 
  end
  begin
     id 7 
     name rfemur
     direction -0.34202 -0.939693 0   
     length 7.29079   
     axis 0 0 -20   XYZ
    dof rx ry rz
    limits (-160.0 20.0)
           (-70.0 70.0)
           (-70.0 60.0)
  end
  begin
     id 8 
     name rtibia
     direction -0.34202 -0.939693 0   
     length 7.47143   
     axis 0 0 -20   XYZ
    dof rx
    limits (-10.0 170.0)
 end
 begin
     id 9 
     name rfoot
     direction -0.119907 -0.329441 0.936532   
     length 1.79439  
     axis -90 -7.62852e-016 -20   XYZ
    dof rx rz
    limits (-45.0 90.0)
           (-20.0 70.0)
  end
  begin
     id 10 
     name rtoes
     direction -1.53571e-011 -4.21961e-011 1   
     length 0.896039   
     axis -90 -7.62852e-016 -20   XYZ
    dof rx
    limits (-90.0 20.0)
  end
  begin
     id 11 
     name lowerback
     direction 0.0367721 0.992912 -0.113016   
     length 1.73542   
     axis 0 0 0   XYZ
    dof rx ry rz
    limits (-20.0 45.0)
           (-30.0 30.0)
           (-30.0 30.0)
  end
  begin
     id 12 
     name upperback
     direction -0.000314626 0.990678 0.136227   
     length 1.7514   
     axis 0 0 0   XYZ
    dof rx ry rz
    limits (-20.0 45.0)
           (-30.0 30.0)
           (-30.0 30.0)
  end
  begin
     id 13 
     name thorax
     direction -0.0226159 0.981151 0.191917   
     length 1.71471   
     axis 0 0 0   XYZ
    dof rx ry rz
    limits (-20.0 45.0)
           (-30.0 30.0)
           (-30.0 30.0)
  end
  begin
     id 14 
     name lowerneck
     direction 0.0219333 0.998071 0.0580739   
     length 1.65882   
     axis 0 0 0   XYZ
    dof rx ry rz
    limits (-20.0 45.0)
           (-30.0 30.0)
           (-30.0 30.0)
  end
  begin
     id 15 
     name upperneck
     direction 0.0384529 0.980058 -0.194957   
     length 1.6612   
     axis 0 0 0   XYZ
    dof rx ry rz
    limits (-20.0 45.0)
           (-30.0 30.0)
           (-30.0 30.0)
  end
  begin
     id 16
     name head
     direction 0.00592123 0.997421 -0.0715234  
     length 1.68077  
     axis 0 0 0   XYZ
    dof rx ry rz
    limits (-20.0 45.0)
           (-30.0 30.0)
           (-30.0 30.0)
  end
  begin
     id 17 
     name lclavicle
     direction 0.904803 0.417826 0.0821728  
     length 3.42227  
     axis 0 0 0   XYZ
    dof ry rz
    limits (-20.0 10.0)
           (0.0 20.0)
  end
  begin
     id 18 
     name lhumerus
     direction 1 -4.48965e-011 -2.68786e-027   
     length 5.11878   
     axis -180 -30 -90   XYZ
    dof rx ry rz
    limits (-60.0 90.0)
           (-90.0 90.0)
           (-90.0 90.0)
  end
  begin
     id 19
     name lradius
     direction 1 -4.48965e-011 2.61168e-028   
     length 3.59971   
     axis -180 -30 -90   XYZ
    dof rx
    limits (-10.0 170.0)
  end
  begin
     id 20
     name lwrist
     direction 1 -4.48965e-011 1.58672e-027   
     length 1.79985   
     axis -1.65735e-015 90 90   XYZ
    dof ry
    limits (-180.0 0.0)
 end
  begin
     id 21 
     name lhand
     direction 1 -4.48942e-011 3.17344e-027   
     length 0.62877   
     axis -2.02492e-015 90 90   XYZ
    dof rx rz
    limits (-90.0 90.0)
           (-45.0 45.0)
  end
  begin
     id 22 
     name lfingers
     direction 1 -4.49011e-011 6.34687e-027   
     length 0.506931   
     axis -4.04985e-015 90 90   XYZ
    dof rx
    limits (0.0 90.0)
  end
  begin
     id 23
     name lthumb
     direction 0.707107 -6.34982e-011 0.707107   
     length 0.727854   
     axis -90 45 2.85299e-015   XYZ
    dof rx rz
    limits (-45.0 45.0)
           (-45.0 45.0)
  end
  begin
     id 24 
     name rclavicle
     direction -0.945647 0.32488 0.0143075   
     length 3.52737  
     axis 0 0 0   XYZ 
    dof ry rz
    limits (-10.0 20.0)
           (-20.0 0.0)
  end
  begin
     id 25 
     name rhumerus
     direction -1 -4.48962e-011 1.92182e-027  
     length 5.4902   
     axis -180 30 90   XYZ
    dof rx ry rz
    limits (-90.0 60.0)
           (-90.0 90.0)
           (-90.0 90.0)
  end
  begin
     id 26 
     name rradius
     direction -1 -4.48967e-011 -5.97193e-028   
     length 3.20659   
     axis -180 30 90   XYZ
    dof rx
    limits (-10.0 170.0)
  end
  begin
     id 27 
     name rwrist
     direction -1 -4.48964e-011 1.58672e-027   
     length 1.6033   
     axis -1.65735e-015 -90 -90   XYZ
    dof ry
    limits (-180.0 0.0)
  end
  begin
     id 28
     name rhand
     direction -1 -4.49006e-011 3.17344e-027   
     length 0.691885   
     axis -2.02492e-015 -90 -90   XYZ
    dof rx rz
    limits (-90.0 90.0)
           (-45.0 45.0)
  end
  begin
     id 29
     name rfingers
     direction -1 -4.48908e-011 6.34687e-027   
     length 0.557815   
     axis -4.04985e-015 -90 -90   XYZ
    dof rx
    limits (0.0 90.0)
  end
  begin
     id 30
     name rthumb
     direction -0.707107 -6.34999e-011 0.707107   
     length 0.800915   
     axis -90 -45 -2.85299e-015   XYZ
    dof rx rz
    limits (-45.0 45.0)
           (-45.0 45.0)
  end
:hierarchy
  begin
    root lhipjoint rhipjoint lowerback
    lhipjoint lfemur
    lfemur ltibia
    ltibia lfoot
    lfoot ltoes
    rhipjoint rfemur
    rfemur rtibia
    rtibia rfoot
    rfoot rtoes
    lowerback upperback
    upperback thorax
    thorax lowerneck lclavicle rclavicle
    lowerneck upperneck
    upperneck head
    lclavicle lhumerus
    lhumerus lradius
    lradius lwrist
    lwrist lhand lthumb
    lhand lfingers
    rclavicle rhumerus
    rhumerus rradius
    rradius rwrist
    rwrist rhand rthumb
    rhand rfingers
  end

#!OML:ASF I:\Actors\actors\Patient Classification 1\Patient 1\Session 1\Subject1.ASF
:FULLY-SPECIFIED
:DEGREES
57
root -0.0328771 17.4316 8.40992 9.44899 -0.731283 -9.50442
lowerback -0.491978 0.307711 5.21984
upperback -9.21701 0.910867 3.24003
thorax -9.46568 0.186672 0.4627
lowerneck -1.21145 -13.9383 -10.3861
upperneck 17.5106 -19.6333 6.36473
head 7.23698 -9.77025 2.11192
rclavicle 9.69075e-016 -5.56597e-015
rhumerus -46.1763 -27.2911 -67.2137
rradius 24.9881
rwrist 38.8856
rhand 0.709094 -32.1859
rfingers 7.12502
rthumb 26.2694 -60.3873
lclavicle 9.69075e-016 -5.56597e-015
lhumerus -44.2016 15.2457 82.7289
lradius 22.6461
lwrist -30.8525
lhand -14.2063 -12.0715
lfingers 7.12502
lthumb 11.9302 17.5686
rfemur -4.97164 24.0819 23.8332
rtibia 3.60359
rfoot -12.7843 -24.6291
rtoes 0.205465
lfemur 4.32578 -43.687 -9.41398
ltibia -4.14143
lfoot -27.54 53.7444
ltoes 16.4989
58
root -0.0316038 17.4312 8.4099 9.45948 -0.741882 -9.50241
lowerback -0.509629 0.31944 5.24575
upperback -9.21378 0.924278 3.21409
thorax -9.4505 0.190184 0.419615
lowerneck -1.15372 -13.9214 -10.4339
upperneck 17.475 -19.6344 6.49823
head 7.23417 -9.76668 2.16376
rclavicle -7.90169e-015 1.64991e-014
rhumerus -46.1078 -27.2469 -67.3248
rradius 24.998
rwrist 38.7722
rhand 0.707961 -32.3177
rfingers 7.12502
rthumb 26.2683 -60.5192
lclavicle -7.90169e-015 1.64991e-014
lhumerus -44.1882 15.2062 82.7382
lradius 22.6623
lwrist -30.8642
lhand -14.1656 -12.0414
lfingers 7.12502
lthumb 11.9694 17.5964
rfemur -4.97499 24.0661 23.8232
rtibia 3.58971
rfoot -12.7441 -24.6167
rtoes 0.149934
lfemur 4.31898 -43.6632 -9.41731
ltibia -4.15044
lfoot -27.3989 53.7826
ltoes 16.2229
59
root -0.0303436 17.4307 8.40914 9.47151 -0.747674 -9.50925
lowerback -0.518597 0.331347 5.26295
upperback -9.21452 0.939221 3.19768
thorax -9.44514 0.195437 0.391499
lowerneck -1.10719 -13.9181 -10.4471
upperneck 17.4234 -19.6416 6.56632
head 7.21835 -9.76831 2.19043
rclavicle -1.05604e-014 2.95195e-014
rhumerus -46.0663 -27.2697 -67.3598
rradius 24.981
rwrist 38.7702
rhand 0.744282 -32.4121
rfingers 7.12502
rthumb 26.3031 -60.6085
lclavicle -1.05604e-014 2.95195e-014
lhumerus -44.1828 15.1025 82.8074
lradius 22.7074
lwrist -30.7898
lhand -14.1462 -12.0962
lfingers 7.12502
lthumb 11.9881 17.5405
rfemur -4.98889 24.0369 23.8204
rtibia 3.58667
rfoot -12.7519 -24.5802
rtoes 0.243725
lfemur 4.29585 -43.6136 -9.39301
ltibia -4.15568
lfoot -27.2427 53.7634
ltoes 15.9701
60
root -0.0294271 17.43 8.40839 9.469 -0.750059 -9.53457
lowerback -0.511252 0.329874 5.27398
upperback -9.20709 0.938414 3.20447
thorax -9.44136 0.194619 0.392525
lowerneck -1.1893 -13.9414 -10.3917
upperneck 17.4788 -19.6532 6.45283
head 7.23415 -9.77516 2.13959
rclavicle 8.0632e-015 -4.47266e-014
rhumerus -46.0305 -27.2642 -67.4078
rradius 24.9834
rwrist 38.7813
rhand 0.790624 -32.5136
rfingers 7.12502
rthumb 26.3474 -60.7033
lclavicle 8.0632e-015 -4.47266e-014
lhumerus -44.1647 14.965 82.9232
lradius 22.7607
lwrist -30.5896
lhand -14.0811 -12.1688
lfingers 7.12502
lthumb 12.0509 17.4643
rfemur -4.98011 24.0474 23.85
rtibia 3.57916
rfoot -12.7276 -24.5865
rtoes 0.160238
lfemur 4.31187 -43.6509 -9.38162
ltibia -4.1503
lfoot -27.3557 53.7811
ltoes 16.1005
61
root -0.0284235 17.4291 8.40821 9.44675 -0.764397 -9.57046
lowerback -0.503519 0.325677 5.31399
upperback -9.1812 0.933832 3.20703
thorax -9.41709 0.189914 0.372904
lowerneck -1.21458 -13.9456 -10.3567
upperneck 17.4706 -19.6504 6.41319
head 7.22779 -9.77378 2.12184
rclavicle 1.46728e-014 -2.14687e-014
rhumerus -45.9738 -27.2834 -67.4688
rradius 24.9672
rwrist 38.8495
rhand 0.777955 -32.5743
rfingers 7.12502
rthumb 26.3353 -60.7658
lclavicle 1.46728e-014 -2.14687e-014
lhumerus -44.1384 14.889 82.9833
lradius 22.7889
lwrist -30.441
lhand -14.0712 -12.2775
lfingers 7.12502
lthumb 12.0604 17.3549
rfemur -4.94833 24.0483 23.8977
rtibia 3.57452
rfoot -12.7292 -24.5549
rtoes 0.124736
lfemur 4.38234 -43.6965 -9.39683
ltibia -4.166
lfoot -27.3874 53.857
ltoes 16.0935
62
root -0.0274107 17.4291 8.40745 9.44197 -0.785291 -9.59762
lowerback -0.50637 0.332568 5.35481
upperback -9.15716 0.942764 3.19999
thorax -9.38794 0.191418 0.341648
lowerneck -1.17213 -13.9215 -10.402
upperneck 17.3943 -19.6298 6.51434
head 7.20877 -9.76176 2.16621
rclavicle 2.80783e-015 3.47873e-015
rhumerus -45.9174 -27.2857 -67.5359
rradius 24.9695
rwrist 38.8625
rhand 0.673739 -32.5232
rfingers 7.12502
rthumb 26.2355 -60.7296
lclavicle 2.80783e-015 3.47873e-015
lhumerus -44.0971 14.9307 82.9579
lradius 22.7453
lwrist -30.4646
lhand -14.1896 -12.5315
lfingers 7.12502
lthumb 11.9463 17.1076
rfemur -4.95803 24.0111 23.9213
rtibia 3.5903
rfoot -12.7415 -24.4882
rtoes 0.143884
lfemur 4.40122 -43.6456 -9.3733
ltibia -4.19212
lfoot -27.1912 53.8504
ltoes 15.8416
63
root -0.0261679 17.4297 8.4062 9.43699 -0.809612 -9.56405
lowerback -0.502279 0.344234 5.32112
upperback -9.1355 0.954323 3.17877
thorax -9.36506 0.19935 0.3364
lowerneck -1.21314 -13.9078 -10.4558
upperneck 17.4232 -19.6199 6.5879
head 7.23738 -9.75333 2.1921
rclavicle -9.74045e-015 -2.17669e-014
rhumerus -45.8743 -27.2604 -67.6038
rradius 25.0041
rwrist 38.7822
rhand 0.602624 -32.4695
rfingers 7.12502
rthumb 26.1675 -60.6861
lclavicle -9.74045e-015 -2.17669e-014
lhumerus -44.0539 15.0501 82.8839
lradius 22.6565
lwrist -30.6302
lhand -14.3606 -12.904
lfingers 7.12502
lthumb 11.7814 16.7446
rfemur -4.96699 24.0018 23.8755
rtibia 3.59818
rfoot -12.7254 -24.4704
rtoes 0.0707076
lfemur 4.40742 -43.6274 -9.42784
ltibia -4.17513
lfoot -27.3806 53.797
ltoes 16.0442
64
root -0.025229 17.43 8.4043 9.41455 -0.840248 -9.50587
lowerback -0.47783 0.368309 5.25607
upperback -9.11139 0.981469 3.14084
thorax -9.35059 0.216522 0.3295
lowerneck -1.25576 -13.926 -10.441
upperneck 17.4555 -19.649 6.60891
head 7.25846 -9.7631 2.18871
rclavicle -1.47349e-014 1.59028e-014
rhumerus -45.8438 -27.3075 -67.6309
rradius 25.0138
rwrist 38.7161
rhand 0.594143 -32.5149
rfingers 7.12502
rthumb 26.1593 -60.7326
lclavicle -1.47349e-014 1.59028e-014
lhumerus -44.0255 15.0638 82.8689
lradius 22.6232
lwrist -30.7556
lhand -14.4537 -13.1628
lfingers 7.12502
lthumb 11.6916 16.491
rfemur -4.97599 23.9867 23.8043
rtibia 3.64092
rfoot -12.7429 -24.4413
rtoes 0.132711
lfemur 4.43708 -43.6714 -9.54472
ltibia -4.12964
lfoot -27.6465 53.8226
ltoes 16.4245
65
root -0.0250584 17.4304 8.40177 9.39833 -0.842346 -9.50874
lowerback -0.444654 0.386567 5.24921
upperback -9.09475 1.00586 3.11817
thorax -9.35025 0.228162 0.306935
lowerneck -1.30695 -13.9625 -10.3856
upperneck 17.485 -19.6929 6.5653
head 7.2706 -9.7818 2.15837
rclavicle 3.13086e-015 -1.78906e-015
rhumerus -45.8258 -27.3601 -67.6451
rradius 25.0109
rwrist 38.6444
rhand 0.547346 -32.4989
rfingers 7.12502
rthumb 26.1145 -60.7233
lclavicle 3.13086e-015 -1.78906e-015
lhumerus -44.0073 14.928 82.9492
lradius 22.6609
lwrist -30.7033
lhand -14.4666 -13.1115
lfingers 7.12502
lthumb 11.6792 16.543
rfemur -5.00843 23.918 23.8043
rtibia 3.70379
rfoot -12.7119 -24.399
rtoes -0.0508323
lfemur 4.42444 -43.6606 -9.53609
ltibia -4.11229
lfoot -27.5906 53.8161
ltoes 16.4476
66
root -0.0250471 17.4305 8.39948 9.39466 -0.823794 -9.51523
lowerback -0.421179 0.371847 5.23185
upperback -9.08816 0.986955 3.12142
thorax -9.35753 0.220331 0.321275
lowerneck -1.40268 -13.9895 -10.333
upperneck 17.5759 -19.7125 6.45489
head 7.30167 -9.79157 2.10562
rclavicle -9.56651e-015 -2.45499e-014
rhumerus -45.8187 -27.3748 -67.6377
rradius 24.9959
rwrist 38.641
rhand 0.435053 -32.4101
rfingers 7.12502
rthumb 26.007 -60.6503
lclavicle -9.56651e-015 -2.45499e-014
lhumerus -43.9954 14.8647 83.0062
lradius 22.6828
lwrist -30.6175
lhand -14.4327 -12.9256
lfingers 7.12502
lthumb 11.7118 16.727
rfemur -5.03509 23.9241 23.8124
rtibia 3.74433
rfoot -12.6861 -24.4397
rtoes -0.256877
lfemur 4.38996 -43.6288 -9.49255
ltibia -4.11655
lfoot -27.5887 53.7344
ltoes 16.451
67
root -0.0251162 17.4297 8.39653 9.4199 -0.813734 -9.47083
lowerback -0.417169 0.353368 5.15782
upperback -9.10055 0.958796 3.11201
thorax -9.37448 0.211469 0.354655
lowerneck -1.45741 -14.0068 -10.277
upperneck 17.6539 -19.7257 6.36697
head 7.32286 -9.79819 2.06367
rclavicle 1.82882e-014 -2.06736e-014
rhumerus -45.8545 -27.4204 -67.5879
rradius 24.9861
rwrist 38.7507
rhand 0.398158 -32.4216
rfingers 7.12502
rthumb 25.9717 -60.667
lclavicle 1.82882e-014 -2.06736e-014
lhumerus -43.9766 14.8918 82.9901
lradius 22.6417
lwrist -30.6186
lhand -14.4194 -12.8171
lfingers 7.12502
lthumb 11.7247 16.8348
rfemur -5.09575 24.0044 23.7397
rtibia 3.78463
rfoot -12.7671 -24.5029
rtoes 0.0830867
lfemur 4.28576 -43.5208 -9.45915
ltibia -4.11054
lfoot -27.4848 53.634
ltoes 16.485
68
root -0.0253222 17.4291 8.39331 9.44937 -0.788553 -9.42538
lowerback -0.420639 0.351182 5.09823
upperback -9.11532 0.951239 3.08023
thorax -9.38842 0.210599 0.354714
lowerneck -1.45452 -14.0193 -10.2201
upperneck 17.6771 -19.7423 6.33002
head 7.3217 -9.80534 2.04295
rclavicle -8.17502e-015 4.21423e-014
rhumerus -45.8989 -27.4317 -67.587
rradius 24.9954
rwrist 38.7517
rhand 0.371182 -32.4419
rfingers 7.12502
rthumb 25.9459 -60.6911
lclavicle -8.17502e-015 4.21423e-014
lhumerus -43.9426 14.8979 82.9615
lradius 22.5789
lwrist -30.66
lhand -14.5061 -12.6894
lfingers 7.12502
lthumb 11.6411 16.9672
rfemur -5.16167 24.0025 23.6664
rtibia 3.81217
rfoot -12.7647 -24.5326
rtoes 0.108954
lfemur 4.12273 -43.275 -9.37631
ltibia -4.1044
lfoot -26.9484 53.5028
ltoes 16.0332
69
root -0.0257565 17.4292 8.39153 9.45075 -0.755846 -9.42274
lowerback -0.419663 0.348624 5.08728
upperback -9.11543 0.946355 3.06588
thorax -9.38893 0.208402 0.345873
lowerneck -1.38025 -14.0079 -10.2778
upperneck 17.6488 -19.7396 6.39886
head 7.31267 -9.80537 2.0781
rclavicle 3.45388e-015 1.92821e-014
rhumerus -45.9103 -27.3325 -67.6637
rradius 25.0273
rwrist 38.5631
rhand 0.299618 -32.4145
rfingers 7.12502
rthumb 25.8773 -60.6737
lclavicle 3.45388e-015 1.92821e-014
lhumerus -43.9284 14.9437 82.9184
lradius 22.5208
lwrist -30.7561
lhand -14.5907 -12.5698
lfingers 7.12502
lthumb 11.5595 17.0914
rfemur -5.18116 24.0044 23.6704
rtibia 3.83903
rfoot -12.7226 -24.5819
rtoes -0.17711
lfemur 4.05742 -43.1785 -9.32118
ltibia -4.09973
lfoot -26.6401 53.4232
ltoes 15.6809
70
root -0.0260968 17.4285 8.39114 9.44853 -0.763633 -9.43506
lowerback -0.426484 0.345764 5.08186
upperback -9.1117 0.941861 3.07138
thorax -9.38095 0.207046 0.355024
lowerneck -1.29884 -13.9729 -10.4759
upperneck 17.6405 -19.724 6.60418
head 7.33658 -9.798 2.17344
rclavicle -3.45388e-015 1.76918e-014
rhumerus -45.931 -27.2624 -67.69
rradius 25.0574
rwrist 38.4559
rhand 0.334113 -32.3766
rfingers 7.12502
rthumb 25.9104 -60.631
lclavicle -3.45388e-015 1.76918e-014
lhumerus -43.9556 15.0066 82.8844
lradius 22.5058
lwrist -30.8442
lhand -14.6127 -12.5089
lfingers 7.12502
lthumb 11.5383 17.1535
rfemur -5.19172 24.0455 23.6831
rtibia 3.86675
rfoot -12.7754 -24.5813
rtoes -0.0371751
lfemur 4.10601 -43.3353 -9.35669
ltibia -4.08544
lfoot -27.0219 53.5013
ltoes 16.0892
